<?xml version="1.0" encoding="UTF-8" standalone="no"?>
<svg
   viewBox="0 0 24 24"
   version="1.1"
   id="svg748"
   sodipodi:docname="api.svg"
   inkscape:version="1.2.2 (732a01da63, 2022-12-09)"
   xmlns:inkscape="http://www.inkscape.org/namespaces/inkscape"
   xmlns:sodipodi="http://sodipodi.sourceforge.net/DTD/sodipodi-0.dtd"
   xmlns="http://www.w3.org/2000/svg"
   xmlns:svg="http://www.w3.org/2000/svg">
  <defs
     id="defs752" />
  <sodipodi:namedview
     id="namedview750"
     pagecolor="#ffffff"
     bordercolor="#000000"
     borderopacity="0.25"
     inkscape:showpageshadow="2"
     inkscape:pageopacity="0.0"
     inkscape:pagecheckerboard="0"
     inkscape:deskcolor="#d1d1d1"
     showgrid="false"
     inkscape:zoom="41.75"
     inkscape:cx="8.9221557"
     inkscape:cy="12"
     inkscape:window-width="1350"
     inkscape:window-height="1205"
     inkscape:window-x="3863"
     inkscape:window-y="1638"
     inkscape:window-maximized="0"
     inkscape:current-layer="svg748" />
  <path
     d="m13.26 10.5h2v1h-2z"
     id="path742"
     style="fill:#00b8dc;fill-opacity:1" />
  <path
     d="m20 4h-16a2 2 0 0 0 -2 2v12a2 2 0 0 0 2 2h16a2 2 0 0 0 2-2v-12a2 2 0 0 0 -2-2zm-11.6 11-.4-1.23h-1.94l-.44 1.23h-1.62l2.2-6h1.62l2.18 6zm8.36-3.5a1.47 1.47 0 0 1 -1.5 1.5h-2v2h-1.5v-6h3.5a1.47 1.47 0 0 1 1.5 1.5zm3.24 3.5h-1.5v-6h1.5z"
     id="path744"
     style="fill:#00b8dc;fill-opacity:1" />
  <path
     d="m6.43 12.77h1.16l-.58-1.59z"
     id="path746"
     style="fill:#00b8dc;fill-opacity:1" />
</svg>
