<?xml version="1.0" encoding="UTF-8" standalone="no"?>
<svg
   viewBox="0 0 512 512"
   version="1.1"
   id="svg6"
   sodipodi:docname="javascript.svg"
   inkscape:version="1.2.2 (732a01da63, 2022-12-09)"
   xmlns:inkscape="http://www.inkscape.org/namespaces/inkscape"
   xmlns:sodipodi="http://sodipodi.sourceforge.net/DTD/sodipodi-0.dtd"
   xmlns="http://www.w3.org/2000/svg"
   xmlns:svg="http://www.w3.org/2000/svg">
  <defs
     id="defs10" />
  <sodipodi:namedview
     id="namedview8"
     pagecolor="#ffffff"
     bordercolor="#000000"
     borderopacity="0.25"
     inkscape:showpageshadow="2"
     inkscape:pageopacity="0.0"
     inkscape:pagecheckerboard="0"
     inkscape:deskcolor="#d1d1d1"
     showgrid="false"
     inkscape:zoom="0.69191503"
     inkscape:cx="193.6654"
     inkscape:cy="448.03189"
     inkscape:window-width="1515"
     inkscape:window-height="1205"
     inkscape:window-x="3261"
     inkscape:window-y="1568"
     inkscape:window-maximized="0"
     inkscape:current-layer="svg6" />
  <rect
     fill="#f7df1e"
     height="512"
     rx="15%"
     width="512"
     id="rect2" />
  <path
     d="m324 370c10 17 24 29 47 29 20 0 33-10 33-24 0-16-13-22-35-32l-12-5c-35-15-58-33-58-72 0-36 27-64 70-64 31 0 53 11 68 39l-37 24c-8-15-17-21-31-21s-23 9-23 21c0 14 9 20 30 29l12 5c41 18 64 35 64 76 0 43-34 67-80 67-45 0-74-21-88-49zm-170 4c8 13 14 25 31 25 16 0 26-6 26-30v-166h48v164c0 50-29 72-72 72-39 0-61-20-72-44z"
     id="path4" />
</svg>
