<?xml version="1.0" encoding="UTF-8"?>
<svg width="39.27" height="43.89" enable-background="new 0 0 76.00 76.00" version="1.1" viewBox="0 0 39.27 43.89" xmlns="http://www.w3.org/2000/svg">
 <g transform="translate(-18.365,-16.055)" stroke="#000" stroke-linejoin="round" stroke-width=".2">
  <path d="m38 33c9.384 0 16.992-2.0126 17-4.4961v23.996c0 2.4853-7.6112 4.5-17 4.5v-7.8421l0.0675 0.0021 1.1625 1.2537c0.3733 0.3892 0.7571 0.728 1.1513 1.0163 0.3941 0.2883 0.8062 0.5154 1.2362 0.6813 0.43 0.1658 0.9008 0.2487 1.4125 0.2487l1.0775-0.0687 0.6925-0.1363v-2.07l-0.2575 0.0813-0.2925 0.0625-0.3013 0.0387-0.2737 0.0125-0.8513-0.065-0.7624-0.2337-0.7376-0.46-0.7737-0.7438c1.085-0.3883 1.9308-1.0575 2.5375-2.0075 0.6083-0.96 0.9125-2.1067 0.9125-3.44 0-1.7067-0.4975-3.0792-1.4925-4.1175-0.99-1.0483-2.2842-1.5725-3.8825-1.5725l-0.625 0.0253zm14-9.5h3v2c0 2.4853-7.6112 4.5-17 4.5v-5c7.732 0 14-0.6715 14-1.5zm-13.462 16.38c0.86 0 1.5325 0.3192 2.0175 0.9575 0.4833 0.6283 0.725 1.5025 0.725 2.6225 0 1.08-0.2525 1.9292-0.7575 2.5475-0.4983 0.6083-1.1808 0.9125-2.0475 0.9125l-0.475-0.0363v-6.9586zm13.942 9.12v-2.08h-4.16v-9.12h-2.56v11.2z"/>
  <path d="m38 57c-9.3889 0-17-2.0147-17-4.5v-24c0 2.4853 7.6112 4.5 17 4.5v4.6436c-1.4391 0.1153-2.6124 0.6524-3.52 1.6113-1.0267 1.085-1.54 2.5117-1.54 4.28 0 0.7734 0.1216 1.4975 0.365 2.1725 0.2433 0.675 0.5879 1.263 1.0337 1.7638 0.4459 0.5008 0.9829 0.8991 1.6113 1.195 0.6154 0.2897 1.2987 0.4472 2.05 0.4723zm17-33.5h-3c0-0.8284-6.268-1.5-14-1.5s-14 0.6716-14 1.5c0 0.8285 6.268 1.5 14 1.5v5c-9.3889 0-17-2.0147-17-4.5v-2c0-2.4852 7.6112-4.5 17-4.5 9.384 0 16.992 2.0127 17 4.5zm-30.86 25.032c0.4083 0.2017 0.8912 0.3534 1.4487 0.455 0.5575 0.1017 1.1454 0.1525 1.7638 0.1525 0.6016 0 1.1733-0.057 1.715-0.1712 0.5416-0.1142 1.0166-0.3021 1.425-0.5638 0.4083-0.2616 0.7316-0.6033 0.97-1.025 0.2383-0.4216 0.3575-0.9433 0.3575-1.565 0-0.45-0.0667-0.8445-0.2-1.1837-0.1334-0.3392-0.3259-0.6408-0.5775-0.905-0.2517-0.2642-0.5534-0.5013-0.905-0.7113l-1.19-0.595-0.87-0.3912-0.655-0.3888-0.4163-0.4187c-0.0975-0.1475-0.1462-0.3146-0.1462-0.5013 0-0.1783 0.0437-0.3395 0.1312-0.4837l0.37-0.3713 0.5863-0.24 0.77-0.085 0.6525 0.0475 0.69 0.1475 0.675 0.2525 0.605 0.3525v-2.2975c-0.38-0.1433-0.7955-0.2495-1.2463-0.3187l-1.5512-0.1038c-0.595 0-1.1584 0.0634-1.69 0.19-0.5317 0.1267-0.9996 0.325-1.4038 0.595s-0.7233 0.6134-0.9575 1.03c-0.2342 0.4167-0.3512 0.915-0.3512 1.495 0 0.74 0.2116 1.3717 0.635 1.895 0.4233 0.5234 1.0666 0.9659 1.93 1.3275l0.9462 0.4125 0.7588 0.42 0.505 0.4738c0.1233 0.1708 0.185 0.3646 0.185 0.5812l-0.1163 0.4675c-0.0775 0.1434-0.1954 0.268-0.3537 0.3738l-0.5913 0.2487-0.8287 0.09c-0.5384 0-1.0717-0.0933-1.6-0.28-0.5284-0.1866-1.0184-0.4666-1.47-0.84zm12.292-7.7c0.4124-0.5142 0.9349-0.8245 1.5675-0.9308v6.9651c-0.6317-0.0958-1.1567-0.3989-1.575-0.9093-0.51-0.6333-0.765-1.4875-0.765-2.5625 0-1.065 0.2575-1.9191 0.7725-2.5625z"/>
 </g>
</svg>
