<?xml version="1.0" encoding="UTF-8" standalone="no"?>
<svg
   height="112.904mm"
   viewBox="0 0 400.03938 400.05354"
   width="112.9mm"
   version="1.1"
   id="svg1604"
   sodipodi:docname="json.svg"
   inkscape:version="1.2.2 (732a01da63, 2022-12-09)"
   xmlns:inkscape="http://www.inkscape.org/namespaces/inkscape"
   xmlns:sodipodi="http://sodipodi.sourceforge.net/DTD/sodipodi-0.dtd"
   xmlns="http://www.w3.org/2000/svg"
   xmlns:svg="http://www.w3.org/2000/svg">
  <defs
     id="defs1608" />
  <sodipodi:namedview
     id="namedview1606"
     pagecolor="#ffffff"
     bordercolor="#000000"
     borderopacity="0.25"
     inkscape:showpageshadow="2"
     inkscape:pageopacity="0.0"
     inkscape:pagecheckerboard="0"
     inkscape:deskcolor="#d1d1d1"
     inkscape:document-units="mm"
     showgrid="false"
     inkscape:zoom="0.44631734"
     inkscape:cx="442.51025"
     inkscape:cy="741.62478"
     inkscape:window-width="1350"
     inkscape:window-height="1205"
     inkscape:window-x="3406"
     inkscape:window-y="1556"
     inkscape:window-maximized="0"
     inkscape:current-layer="svg1604" />
  <linearGradient
     id="a"
     gradientUnits="userSpaceOnUse"
     x1="283.08621"
     x2="562.78149"
     y1="711.57837"
     y2="364.79572">
    <stop
       offset="0"
       stop-color="#4e505d"
       id="stop1579" />
    <stop
       offset="1"
       stop-color="#7a8597"
       id="stop1581" />
  </linearGradient>
  <g
     transform="translate(-203.23784,-322.3381)"
     id="g1598">
    <path
       d="m 203.2375,322.33887 h 400 v 400 h -400 z"
       fill="none"
       id="path1584" />
    <path
       d="m 203.27757,322.39087 h 400 v 400 h -400 z"
       fill="none"
       id="path1586" />
    <g
       fill-rule="evenodd"
       id="g1594">
      <path
         d="m 459.63277,322.36227 -195.13672,0.0195 c -11.38911,-0.0191 -17.07144,5.61131 -17.02344,16.83203 -0.0314,61.06609 -0.038,148.03499 -0.0332,234.26368 4.46812,-2.18476 9.44067,-3.4043 14.5332,-3.4043 H 545.4609 c 5.09405,0 10.06798,1.22029 14.5371,3.40625 L 560,422.44037 c -5.1936,0.47604 -20.79145,1.82483 -38.26953,2.47656 -10.61175,0.39565 -21.67511,0.54541 -31.78321,-0.0684 -5.05405,-0.30687 -9.84436,-0.77476 -14.74023,-1.74609 -4.89588,-0.97133 -6.72004,-0.57785 -13.7207,-6.60743 -6.19763,-5.33794 -7.3876,-13.41967 -7.72266,-22.32812 -0.33507,-8.90845 0.65027,-17.33283 1.75195,-25.95117 2.20336,-17.23667 4.84052,-35.66105 4.24219,-44.08594 l -0.125,-1.76758 z m 35.65625,50.90625 c -0.0523,0.3951 -0.12783,0.89653 -0.17773,1.28711 -0.48825,3.81953 -0.85419,7.37758 -1.0918,10.41016 3.96859,0.21169 8.5956,0.27568 13.56641,0.23828 -2.04702,-2.04541 -3.98331,-4.0427 -6.06446,-6.08399 -2.2399,-2.19699 -4.00316,-3.70652 -6.23242,-5.85156 z m -1.55859,19.02734 c 0.0686,1.71999 0.6109,1.45369 0,0 z M 265.43355,606.07321 v 98.29883 h 276.56641 v -98.29883 z"
         fill="url(#a)"
         id="path1588"
         style="fill:url(#a)" />
      <path
         d="m 474.69409,322.35921 c 4.54635,-1.18483 85.25811,76.62516 85.25811,84.98046 0,0 -75.44211,7.35253 -86.90512,-1.29887 -11.46301,-8.65141 3.62243,-55.86651 1.64701,-83.68159 z"
         fill="#99b000"
         id="path1590" />
      <path
         d="m 285.04683,467.77829 c -5.03585,0 -9.08984,4.05398 -9.08984,9.08984 0,5.03586 4.05399,9.08984 9.08984,9.08984 h 218.16016 c 5.03586,0 9.08984,-4.05398 9.08984,-9.08984 0,-5.03586 -4.05398,-9.08984 -9.08984,-9.08984 z m 0,54.54101 c -5.03585,0 -9.08984,4.05399 -9.08984,9.08985 0,5.03585 4.05399,9.08984 9.08984,9.08984 H 412.3066 c 5.03585,0 9.0918,-4.05399 9.0918,-9.08984 0,-5.03586 -4.05595,-9.08985 -9.0918,-9.08985 z"
         fill="#ffffff"
         id="path1592" />
    </g>
    <path
       d="m 261.97333,588.07287 h 283.48763 c 8.04662,0 14.53874,5.94407 14.53874,13.3122 v 107.67406 c 0,7.36822 -6.49212,13.31231 -14.53874,13.31231 H 261.97333 c -8.04748,0 -14.53957,-5.94409 -14.53957,-13.31231 V 601.38507 c 0,-7.36813 6.49209,-13.3122 14.53957,-13.3122 z"
       fill="#99b000"
       id="path1596" />
  </g>
  <text
     fill="#252525"
     font-family="sans-serif"
     font-size="131.353px"
     letter-spacing="0"
     transform="scale(0.8468717,1.1808164)"
     word-spacing="0"
     x="62.160381"
     y="329.03845"
     id="text1602"><tspan
       fill="#ffffff"
       font-family="arial"
       font-weight="bold"
       x="62.160381"
       y="329.03845"
       id="tspan1600">JSON</tspan></text>
</svg>
